<?xml version="1.0" encoding="UTF-8"?>
<svg id="Layer_1" data-name="Layer 1" xmlns="http://www.w3.org/2000/svg" viewBox="0 0 1364.43 1149.12">
  <defs>
    <style>
      .cls-1 {
        fill: #c3837f;
      }

      .cls-1, .cls-2, .cls-3 {
        stroke-width: 0px;
      }

      .cls-2 {
        fill: #788b78;
      }

      .cls-3 {
        fill: #fff;
      }
    </style>
  </defs>
  <path class="cls-2" d="M717.67,369.38c40.54-45.82,85.35-87.18,134.14-123.91,54-40.65,111.92-74.58,177.24-94.37,31.73-9.61,64.12-16.06,97.15-16.44,43.04-.5,84.93,6.63,123.45,27.46,60.07,32.48,96.19,82.48,108.59,149.53,5.72,30.92,8.43,62.09,3.92,93.41-7.99,55.4-21.86,108.95-51.09,157.52-9.79,16.27-19.49,32.57-29.85,48.49-15.38,23.64-35.08,43.49-54.82,63.36-15.07,15.18-30.97,29.37-48.98,40.91-7.15,4.59-10.47,10.44-11.59,18.48-4.12,29.47-12.36,57.8-22.89,85.62-14.97,39.56-35.94,75.71-60.07,110.22-32.6,46.6-73.42,84.9-119.19,118.17-25.88,18.82-52.57,36.42-80.74,51.68-45.87,24.84-94.45,41.01-146.5,46.61-23.57,2.54-47.13,4.45-70.7,1.53-81.61-10.08-142.03-49.7-175.51-126.68-14.3-32.87-17.05-67.37-16.43-102.67.65-37.13,9.54-72.43,20.97-107.37,18.59-56.84,50.19-105.56,91.84-148.06,10.5-10.71,20.98-21.44,31.71-31.92,9.2-8.99,15.62-19.82,21.79-30.91,2.26-4.06,1.87-8.35,2.1-12.64.99-18.95,3.36-37.73,7.25-56.31,4.46-28.1,10.82-55.8,17.57-83.44,2.43-9.93,6.55-19.49,7.07-29.88,2.06-2.95,1.29-7.05,3.97-9.75,4.19-.17,6.2-3.56,8.85-5.99,11.05-10.13,20.45-21.83,30.75-32.67v.02ZM1020.09,489.88c5.35-5.68,7.67-13.07,10.81-19.9,11.03-23.98,23.94-46.84,39.29-68.31,19.86-27.79,41.26-53.75,74.02-67.68,21.93-9.32,43.6-11.82,65.55-1.18,19.86,9.63,36.13,23.87,49.18,41.5,7.89,10.67,11.59,22.99,11.04,36.58-1.05,25.62-13.46,46.12-29.28,64.84-9.95,11.77-20.53,10.75-29.09-2.02-8.2-12.24-17.39-23.53-28.25-33.53-23.73-21.84-58.28-24.04-82.16-8.43-16.04,10.48-28.31,24.14-38.97,39.57-27.19,39.35-44.95,89.31-54.42,136.88-1.75,8.81-3.65,17.59-5.48,26.38-.5,2.41-1.38,4.51-4.2,4.88-2.61.35-4.54-.94-5.98-2.91-2.21-3.01-3.04-6.62-4.11-10.12-5.31-17.39-3.47-35.19-1.26-52.54,4.57-35.84-2.33-67.52-28.73-93.55-1.66-1.63-2.99-3.58-4.63-5.25-11.04-11.26-23.98-19.16-39.87-20.94-20.55-2.31-40.4.69-59.7,8.38-19.37,7.71-35.78,20.34-53.13,31.33-4.15,2.63-9.44,5.82-12.47,11.98,4.45,0,8,.04,11.55,0,45.64-.57,91.27-2.51,136.92-1.75,12.05.2,17.43,6.51,15.41,18.45-.61,3.59-1.63,7.12-2.69,10.61-3.98,13.11-10.6,25.14-15.55,37.86-9.83,25.22-7.41,49.5,5.77,72.98,10.64,18.96,26.25,32.74,45.35,42.37,42.63,21.5,87.24,24.74,133,12.21,36.01-9.86,67.1-29.34,95.52-52.76,34.06-28.06,61.81-61.59,79.92-102.23,19.72-44.24,25.87-90.48,19.56-138.54-3.38-25.71-9.58-50.34-23.64-72.46-8.22-12.93-16.18-26.19-27.3-36.86-15.41-14.8-32.14-28.05-50.59-38.94-20.81-12.28-42.9-21.57-66.94-24.8-46.26-6.22-91.72-1.26-136.04,12.79-34.39,10.9-66.82,26.48-97.65,45.18-41.91,25.41-80.66,55.11-116.83,88.12-14.7,13.42-30.04,26.08-43.41,41.05-18.63,20.86-38.46,40.66-57.84,60.85-2.85,2.96-4.79,6.06-5.56,10.27-4.63,25.33-7.1,50.79-5.05,76.52,1.68,21.06,9.29,39.57,25.84,53.35,22.15,18.44,48.44,25.06,76.49,23.14,37.93-2.59,69.02-20.49,95.33-47.09,5.25-5.31,10.75-10.72,14.43-17.79-3.74-2.16-7.39-2.1-11.02-2.25-7.02-.28-13.97.98-20.92,1.04-38.98.36-77.91,2.97-116.9,2.24-15.02-.28-20.99-9.23-15.49-23.2,6.34-16.13,14.16-31.59,21.84-47.1,24.45-49.38,59.3-89.37,108-115.76,34.58-18.74,70.8-28.26,109.8-11.89,11.77,4.94,21.39,12.06,29.51,21.4,13.39,15.4,19.99,33.65,20.72,53.94.39,10.96.1,21.95.13,32.93-1.12.21-1.39,1.05-1.29,1.98.03.28.62.5.95.75.18-.86.35-1.72.53-2.57h-.02ZM639.86,637.68c-5.05,3.66-7.62,7.44-10.39,11.04-12.6,16.37-24.8,33.06-37.89,49.01-17.15,20.89-33.74,42.06-47.07,65.69-22.07,39.14-32.49,80.73-26.47,125.64,5.35,39.87,21.46,74.83,50.84,102.7,34.1,32.35,75.33,49.69,121.9,53.71,47.74,4.13,94.24-2.76,139.42-18.58,38.73-13.56,75.18-31.74,109.96-53.49,18.39-11.5,36.12-23.78,53.01-37.38,31.54-25.41,59-54.69,84.7-85.95,24.48-29.78,42.1-62.97,54.84-99.05.96-2.73,2.55-5.4.98-9.06-10.13,4.39-20.08,8.8-30.1,13.04-37.7,15.94-76.98,21.81-117.24,14.46-31.61-5.77-56.66-22.67-71.9-51.94-8.56-16.45-13.35-34.07-14.12-52.61-.43-10.46-.08-20.94-.08-32.18-1.93,1.08-2.66,1.24-2.92,1.68-11.87,19.79-26.53,37.46-41.36,55.06-12.4,14.71-27.16,26.51-43.07,36.93-12.04,7.89-25.22,13.03-39.6,15.77-15.92,3.03-31.71,2.54-47.63,1.44-42.08-2.91-77.88-32.58-84.09-78.18-1.19-8.76-.54-17.65-1.72-27.75h0Z"/>
  <path class="cls-1" d="M717.67,369.38c-10.3,10.84-19.7,22.54-30.75,32.67-2.65,2.43-4.66,5.82-8.85,5.99-.43-4.82,1.57-9.15,2.81-13.6,9.71-34.94,18.23-70.16,25.72-105.64,5.23-24.77,8.67-49.83,10.85-74.98,1.84-21.22,2.31-42.68-3.57-63.52-7.63-27.01-20.52-50.1-49.1-59.92-21.48-7.38-43.35-7.84-64.63.19-31.21,11.77-55.7,32.23-73.56,60.45-12.12,19.15-21.95,39.61-33.31,59.19-5.07,8.73-8.44,18.03-11.89,27.41-2.16,5.88-.8,9.71,3.38,14.16,48.72,51.88,64.75,114.1,56.28,183.38-3.43,28.09-10.97,55.37-21.17,81.92-8.05,20.95-18.28,40.67-30.58,59.34-2.42,3.68-5.08,9.37-10.66,6.68-5.25-2.53-3.05-8.4-2.08-12.65,1.56-6.78,3.93-13.41,6.33-19.97,12.75-34.83,16.3-70.43,9.1-106.91-6.44-32.58-17.15-63.43-35.66-91.42-17.18-25.97-39.11-46.03-67.7-58.68-38.73-17.14-78.31-16.48-118.07-4.94-41.4,12.01-77.19,34.38-108.88,63.09-54.75,49.59-91.66,110.17-109.84,182.02-2.84,11.21-5.87,22.53-7.9,33.74-3.24,17.87-3.1,36.36-1.97,54.63,3.26,52.55,26.27,94.5,69.59,124.26,27.44,18.84,58.18,29.03,92.12,27.77,19.77-.74,38.94-4.72,57.86-9.88,40.62-11.07,77.03-31.21,112.24-53.62,25.06-15.95,47.8-34.97,70.26-54.36,28.25-24.39,55.51-49.87,82.05-76.05,17.75-17.52,35.12-35.51,51.53-54.39,20.54-23.62,41.41-46.96,62.44-70.14,11.39-12.56,21.76-26.05,34.04-37.8-.52,10.39-4.65,19.94-7.07,29.88-6.75,27.63-13.11,55.34-17.57,83.44-3.06-1.37-4.05,1.24-5.48,2.91-16.9,19.73-33.73,39.53-50.69,59.21-24.14,28.02-49.36,55.05-75.5,81.22-28.2,28.23-56.11,56.75-86.63,82.56-39.55,33.46-81.23,63.84-127.84,86.78-34.61,17.03-71.04,28.8-109.75,31.3-43.33,2.79-84.29-4.58-120-31.58-25.44-19.23-42.77-44.45-55.21-73.41-9.28-21.62-13.83-44.34-16.37-67.63-6.84-62.61,4.54-122.86,24.83-181.53,22.84-66.04,56.11-126.39,102.43-179.34,36.59-41.84,78.09-77.29,127.57-102.9,24.63-12.75,50.31-23.02,77.81-27.71,42.53-7.24,83.63-4.19,121.73,18.35.57.34,1.15.67,1.74.98,5.92,3.08,6.14,3.16,8.55-2.95,5.62-14.25,11.29-28.46,17.49-42.48,16.88-38.21,36.35-74.91,61.58-108.35,14.91-19.76,30.98-38.7,51.11-53.14,18.48-13.26,39.26-22.34,62.63-23.21,16.36-.61,32.48-.22,47.83,7.22,20.03,9.71,33.38,25.17,41.03,45.61,10.58,28.27,12.48,57.78,10.7,87.59-1.05,17.59-2.49,35.14-4.76,52.65-4.33,33.41-11.41,66.2-19.75,98.78-6.1,23.85-11.76,47.82-17.67,71.72-.51,2.06-.62,3.92.82,5.62h.01Z"/>
  <path class="cls-3" d="M1020.09,489.88c-.18.86-.35,1.72-.53,2.57-.33-.25-.92-.47-.95-.75-.1-.93.17-1.77,1.29-1.98l.19.16Z"/>
  <path class="cls-1" d="M338.33,496.59c.8,9.92-2.93,18.81-7.69,27.3-5.4,9.62-12.08,18.37-20.03,25.98-9.84,9.41-20.17,11.61-32.2,4.56-15.27-8.94-29.73-19.02-43.87-29.55-11.77-8.77-12.64-13.55-7.65-27.54,3.74-10.5,10.37-19.33,16.19-28.6,4.07-6.47,8.92-12.44,13.3-18.72,3.15-4.5,7.51-7.52,12.12-10.19,3.98-2.31,8-2.16,12.42-.45,17.72,6.85,32.47,18.16,46.52,30.49,7.88,6.92,12.36,15.63,10.9,26.73h0Z"/>
  <path class="cls-2" d="M1203.55,538.97c-1.48,12.43-8.33,22.25-19.14,29.31-3.81,2.49-8.56,2.1-12.37-.39-7.79-5.09-15.51-10.35-22.85-16.05-5.06-3.93-5.82-7.47-3.15-13.27,4.33-9.39,9.86-18.12,16.41-26.15,3.3-4.05,7.81-5.83,12.44-3.37,8.19,4.36,16.55,8.58,23.05,15.59,3.63,3.92,4.94,8.53,5.62,14.33h-.01Z"/>
  <path class="cls-2" d="M1115.33,582.01c-1.97-.25-4.17-.03-5.87-.84-9.66-4.61-18.21-10.95-26.35-17.82-2.77-2.34-3.19-5.59-2.05-9.14,3.65-11.34,10.76-20.6,18.07-29.63,3.4-4.2,8.76-4.62,13.64-1.85,8.71,4.96,16.76,10.78,23.36,18.51,3.34,3.91,4.43,8.06,3.19,12.93-2.46,9.65-7.67,17.6-14.93,24.32-2.59,2.39-5.45,3.8-9.06,3.52h0Z"/>
  <path class="cls-2" d="M1142.95,655.18c-.4-10.52-7.52-16.53-15.91-21.85-10.63-6.74-11.59-10.54-6.4-22.16,2.85-6.39,6.39-12.42,10.46-18.08,5.06-7.04,10.3-8.45,18.17-4.79,6.68,3.11,12.5,7.56,17.31,13.18,4.85,5.65,6.85,12.45,5.1,19.54-3.45,13.99-10.97,25.45-23.42,33.25-1.38.87-2.9,1.66-5.31.91h0Z"/>
  <path class="cls-2" d="M768.93,879.16c-5.59.34-10.01-2.13-14.15-4.91-8.29-5.57-16.54-11.22-24.53-17.21-9.18-6.89-10.09-10.39-5.99-21.45,5.05-13.63,13.92-24.97,22.97-36.03,5.27-6.43,11.69-7.32,18.86-3.38,12.6,6.91,24.37,14.93,33.31,26.57,3.96,5.16,5.6,10.63,3.91,16.79-3.6,13.13-10.33,24.45-20.29,33.83-4.06,3.82-8.64,6.19-14.09,5.79Z"/>
  <path class="cls-2" d="M891.1,819.25c-.54,5.78-1.87,11.53-4.79,16.91-4.18,7.7-9.72,14.28-16.22,20.07-7,6.24-15.08,7.47-22.88,2.49-10.35-6.61-20.27-13.91-30.29-21.04-7.97-5.68-8.14-14-4.27-21.2,5.67-10.53,11.9-20.77,18.91-30.48,8.18-11.33,14.08-12.32,26.08-5.34,8.63,5.02,17.23,9.95,24.6,16.85,6.3,5.91,8.53,13.24,8.86,21.72v.02Z"/>
  <path class="cls-2" d="M807.01,982.03c1.44-16.14-8.24-24.06-18.92-31.31-1.92-1.31-3.91-2.53-5.83-3.82-11.08-7.45-11.83-10.34-7.12-23.24,4.15-11.36,10.52-21.47,17.43-31.22,5.74-8.1,12.74-10.1,21.81-6.39,9.65,3.95,18.14,9.96,25.01,17.71,8.83,9.96,11.2,21.83,6.79,34.44-4.8,13.71-13.08,25.3-23.58,35.28-4.14,3.93-9.43,5.67-15.6,8.56h0Z"/>
</svg>